<svg width="100" height="100" viewBox="0 0 100 100" fill="none" xmlns="http://www.w3.org/2000/svg">
<path d="M50.5 3C47.45 3 44.5249 4.24171 42.3683 6.45196C40.2116 8.66221 39 11.6599 39 14.7857V46.2143C39 49.3401 40.2116 52.3378 42.3683 54.548C44.5249 56.7583 47.45 58 50.5 58C53.55 58 56.4751 56.7583 58.6317 54.548C60.7884 52.3378 62 49.3401 62 46.2143V14.7857C62 11.6599 60.7884 8.66221 58.6317 6.45196C56.4751 4.24171 53.55 3 50.5 3Z" stroke="#434343" stroke-width="2" stroke-linecap="round" stroke-linejoin="round"/>
<path d="M77 39V46.7778C77 53.9976 74.1554 60.9216 69.0919 66.0268C64.0284 71.132 57.1608 74 50 74C42.8392 74 35.9716 71.132 30.9081 66.0268C25.8446 60.9216 23 53.9976 23 46.7778V39" stroke="#434343" stroke-width="2" stroke-linecap="round" stroke-linejoin="round"/>
<path d="M50 74V90" stroke="#434343" stroke-width="2" stroke-linecap="round" stroke-linejoin="round"/>
<path d="M36 97H69" stroke="#434343" stroke-width="2.5" stroke-linecap="round" stroke-linejoin="round"/>
</svg>
