<svg width="100" height="100" viewBox="0 0 100 100" fill="none" xmlns="http://www.w3.org/2000/svg">
<path d="M8 78V49.6C8 38.3018 12.4777 27.4663 20.448 19.4773C28.4183 11.4882 39.2283 7 50.5 7C61.7717 7 72.5817 11.4882 80.552 19.4773C88.5223 27.4663 93 38.3018 93 49.6V78" stroke="#434343" stroke-width="2" stroke-linecap="round" stroke-linejoin="round"/>
<path d="M93 82.2857C93 84.8621 92.005 87.333 90.2338 89.1548C88.4626 90.9765 86.0604 92 83.5556 92H78.8333C76.3285 92 73.9263 90.9765 72.1551 89.1548C70.3839 87.333 69.3889 84.8621 69.3889 82.2857V67.7143C69.3889 65.1379 70.3839 62.667 72.1551 60.8453C73.9263 59.0235 76.3285 58 78.8333 58H93V82.2857ZM8 82.2857C8 84.8621 8.99504 87.333 10.7662 89.1548C12.5374 90.9765 14.9396 92 17.4444 92H22.1667C24.6715 92 27.0737 90.9765 28.8449 89.1548C30.6161 87.333 31.6111 84.8621 31.6111 82.2857V67.7143C31.6111 65.1379 30.6161 62.667 28.8449 60.8453C27.0737 59.0235 24.6715 58 22.1667 58H8V82.2857Z" stroke="#434343" stroke-width="2" stroke-linecap="round" stroke-linejoin="round"/>
</svg>
