<svg width="100" height="100" viewBox="0 0 100 100" fill="none" xmlns="http://www.w3.org/2000/svg">
<path d="M78.3333 3H22.3333C17.1787 3 13 7.19324 13 12.3659V87.2927C13 92.4653 17.1787 96.6585 22.3333 96.6585H78.3333C83.488 96.6585 87.6667 92.4653 87.6667 87.2927V12.3659C87.6667 7.19324 83.488 3 78.3333 3Z" stroke="#434343" stroke-width="2" stroke-linecap="round" stroke-linejoin="round"/>
<path d="M50.3337 40.4634C45.383 40.4634 40.635 42.437 37.1343 45.9498C33.6337 49.4627 31.667 54.2272 31.667 59.1951C31.667 64.1631 33.6337 68.9276 37.1343 72.4405C40.635 75.9533 45.383 77.9269 50.3337 77.9269C55.2844 77.9269 60.0323 75.9533 63.533 72.4405C67.0337 68.9276 69.0003 64.1631 69.0003 59.1951C69.0003 54.2272 67.0337 49.4627 63.533 45.9498C60.0323 42.437 55.2844 40.4634 50.3337 40.4634Z" stroke="#434343" stroke-width="2" stroke-linecap="round" stroke-linejoin="round"/>
<path d="M50.3335 21.7318H50.3801" stroke="#434343" stroke-width="2" stroke-linecap="round" stroke-linejoin="round"/>
</svg>
