<svg width="501" height="500" viewBox="0 0 501 500" fill="none" xmlns="http://www.w3.org/2000/svg">
<path d="M500 250C500 388.071 388.071 500 250 500C111.929 500 0 388.071 0 250C0 111.929 111.929 0 250 0C388.071 0 500 111.929 500 250Z" fill="white"/>
<path d="M358.974 414H288.75L259.214 255.788C254.67 234.17 251.434 208.627 249.506 179.161L247.854 194.445L239.386 256.614L210.676 414H140.452L85.7178 112.034H140.865L167.922 282.432C170.538 299.506 174.049 326.288 178.456 362.777C181.898 325.875 185.134 299.506 188.163 283.671L220.384 112.034H278.629L310.85 283.671C315.118 309.145 318.492 335.651 320.97 363.19C325.79 322.433 329.301 295.513 331.504 282.432L357.735 112.034H413.295L358.974 414Z" fill="#434242"/>
</svg>
